<svg width="103" height="86" viewBox="0 0 103 86" fill="none" xmlns="http://www.w3.org/2000/svg">
<g id="&#229;&#133;&#154;&#229;&#145;&#152;&#228;&#186;&#186;&#230;&#149;&#176;">
<g id="Group 1000018963">
<g id="Group 1000018962">
<rect id="Rectangle 346241291" x="51.4998" y="16.9913" width="35.2202" height="35.2202" transform="rotate(45 51.4998 16.9913)" fill="url(#paint0_linear_501_4898)" fill-opacity="0.5" stroke="url(#paint1_linear_501_4898)" stroke-width="0.75"/>
<rect id="Rectangle 346241292" x="51.4998" y="12.3557" width="41.7742" height="41.7742" transform="rotate(45 51.4998 12.3557)" stroke="url(#paint2_linear_501_4898)" stroke-width="0.652174"/>
</g>
<g id="&#232;&#163;&#133;&#233;&#165;&#176;">
<g id="Rectangle 346241293" filter="url(#filter0_dddd_501_4898)">
<path d="M64.2173 18.416H65.5216V19.7204H64.2173V18.416Z" fill="white"/>
<path d="M65.1958 18.7422V19.3945H64.5435V18.7422H65.1958Z" stroke="url(#paint3_linear_501_4898)" stroke-width="0.652174"/>
</g>
<g id="Rectangle 346241298" filter="url(#filter1_dddd_501_4898)">
<path d="M70.4126 40.5898H71.7169V41.8942H70.4126V40.5898Z" fill="white"/>
<path d="M71.3911 40.916V41.5684H70.7388V40.916H71.3911Z" stroke="url(#paint4_linear_501_4898)" stroke-width="0.652174"/>
</g>
<g id="Rectangle 346241294" filter="url(#filter2_dddd_501_4898)">
<path d="M24.4998 28.3945H25.8041V29.6989H24.4998V28.3945Z" fill="white"/>
<path d="M25.4783 28.7207V29.373H24.8259V28.7207H25.4783Z" stroke="url(#paint5_linear_501_4898)" stroke-width="0.652174"/>
</g>
<g id="Rectangle 346241295" filter="url(#filter3_dddd_501_4898)">
<path d="M41.7173 13.5254H43.6738V15.4819H41.7173V13.5254Z" fill="white"/>
<path d="M43.3481 13.8516V15.1562H42.0435V13.8516H43.3481Z" stroke="url(#paint6_linear_501_4898)" stroke-width="0.652174"/>
</g>
<g id="Rectangle 346241296" filter="url(#filter4_dddd_501_4898)">
<rect x="37.1519" y="56.8945" width="2.6087" height="2.6087" fill="white"/>
<rect x="37.4779" y="57.2206" width="1.95652" height="1.95652" stroke="url(#paint7_linear_501_4898)" stroke-width="0.652174"/>
</g>
<g id="Rectangle 346241297" filter="url(#filter5_dddd_501_4898)">
<path d="M59.3259 59.5039H61.2824V61.4604H59.3259V59.5039Z" fill="white"/>
<path d="M60.9568 59.8301V61.1348H59.6521V59.8301H60.9568Z" stroke="url(#paint8_linear_501_4898)" stroke-width="0.652174"/>
</g>
</g>
<g id="Group 1000018964">
<g id="Vector" filter="url(#filter6_dd_501_4898)">
<path d="M49.9864 29.9072C50.7009 29.8663 51.4177 29.9246 52.1158 30.0805C52.7761 30.2391 53.4163 30.5393 53.9024 31.0154C54.4006 31.4941 54.7167 32.1288 54.8881 32.7874C55.0301 33.3296 55.0864 33.8929 55.0957 34.4536C55.1214 35.9441 54.6451 37.4009 53.7417 38.5953C53.3265 39.1427 52.8283 39.6333 52.2498 40.0102C51.9123 40.2359 51.542 40.4094 51.1515 40.5246C50.7448 40.6457 50.3139 40.6643 49.898 40.5789C49.2015 40.4334 48.5748 40.0631 48.0323 39.6175C46.9429 38.6956 46.1741 37.4592 45.8346 36.0828C45.6203 35.2219 45.6109 34.3213 45.7328 33.4459C45.8413 32.6975 46.0877 31.949 46.5672 31.3486C46.9703 30.8329 47.5395 30.4587 48.1569 30.2391C48.7422 30.0262 49.3676 29.9363 49.9877 29.9085L49.9864 29.9072ZM46.4774 40.8235C46.5342 40.8036 46.593 40.7903 46.6529 40.7838C46.7582 40.7718 46.8649 40.7854 46.9636 40.8235C47.0334 40.8508 47.0985 40.8887 47.1565 40.9359C47.273 41.0271 47.3346 41.1633 47.4029 41.289L48.6993 43.656C48.7366 43.7428 48.7945 43.8194 48.8681 43.8795C48.9542 43.9404 49.0594 43.969 49.1649 43.9603C49.2704 43.9516 49.3693 43.9061 49.444 43.8319C49.5779 43.697 49.602 43.4749 49.5069 43.3135L49.2042 42.7449C49.1703 42.685 49.1519 42.6178 49.1506 42.5492C49.1497 42.4961 49.1583 42.4433 49.1761 42.3932C49.2037 42.3225 49.2456 42.2581 49.2993 42.2041C49.4908 41.9806 49.6797 41.7571 49.8725 41.5349C49.9294 41.4755 49.9959 41.4259 50.0694 41.3882C50.1856 41.3316 50.3154 41.3078 50.4444 41.3194C50.5269 41.3282 50.6072 41.3515 50.6815 41.3882C50.8194 41.4516 50.9118 41.5746 51.0069 41.687C51.1716 41.8814 51.3377 42.0731 51.5024 42.2689C51.555 42.334 51.5873 42.4127 51.5954 42.4956C51.6035 42.5785 51.587 42.6619 51.548 42.7357L51.2332 43.3334C51.2128 43.3731 51.198 43.4153 51.189 43.459C51.1796 43.5193 51.1823 43.5809 51.1971 43.6402C51.2088 43.6829 51.2264 43.7238 51.2493 43.7618C51.3071 43.8511 51.3955 43.9169 51.4984 43.947C51.5688 43.9683 51.6436 43.971 51.7154 43.9549C51.7681 43.9439 51.8182 43.9228 51.8627 43.8927C51.9256 43.8513 51.9763 43.7943 52.01 43.7274L53.4029 41.1871C53.4403 41.1017 53.4952 41.0249 53.5642 40.9615C53.6332 40.8981 53.7147 40.8494 53.8036 40.8186C53.8926 40.7878 53.987 40.7755 54.081 40.7825C54.175 40.7895 54.2665 40.8156 54.3498 40.8592C55.5364 41.4728 56.723 42.093 57.8721 42.7767C58.1841 42.9658 58.4989 43.1535 58.7841 43.3823C58.9676 43.5225 59.0882 43.7208 59.198 43.9192C59.3319 44.1744 59.4484 44.4376 59.5502 44.7073C59.6359 44.9348 59.735 45.1609 59.7498 45.4056V45.5629C59.7176 46.0786 59.3654 49.1296 58.8712 49.3082C58.6328 49.402 58.3743 49.3968 58.1212 49.3928H42.3899C42.0908 49.3972 41.7982 49.3063 41.5556 49.1336C41.4388 49.0494 41.3369 48.9466 41.2542 48.8295C41.095 48.612 41.0063 45.7809 40.9998 45.5127V45.4598C41.0021 45.3889 41.0089 45.3183 41.0198 45.2482C41.0322 45.179 41.0501 45.1109 41.0734 45.0445C41.1712 44.7695 41.2756 44.4971 41.3975 44.2313C41.5301 43.9509 41.6654 43.6613 41.8931 43.4431C42.1864 43.1892 42.5252 42.9922 42.856 42.7872C43.9207 42.1525 45.019 41.5746 46.1198 41.002C46.2404 40.9438 46.3556 40.8751 46.4788 40.8235H46.4774Z" fill="url(#paint9_linear_501_4898)" shape-rendering="crispEdges"/>
<path d="M46.698 41.1963H46.7585L46.8142 41.2109L46.8943 41.2578L46.9001 41.2627C46.9072 41.2682 46.922 41.2823 46.946 41.3203C46.9581 41.3395 46.9716 41.3621 46.9871 41.3906C46.9948 41.4049 47.0018 41.4201 47.0105 41.4365C47.0189 41.4523 47.0282 41.4697 47.0378 41.4873L47.0388 41.4883L48.3347 43.8555V43.8545C48.3985 43.9885 48.4902 44.1072 48.6052 44.2012L48.6287 44.2188C48.7947 44.336 48.9968 44.3907 49.199 44.374C49.4011 44.3573 49.5916 44.2702 49.7361 44.127L49.739 44.124C50.0051 43.8556 50.0501 43.4357 49.8718 43.1182H49.8738L49.571 42.5498L49.5662 42.542V42.5381C49.5728 42.5233 49.5816 42.5092 49.5935 42.4971L49.6042 42.4854L49.615 42.4746C49.8047 42.2532 49.9854 42.0381 50.1726 41.8223C50.1965 41.7973 50.2245 41.7762 50.2556 41.7598C50.302 41.7382 50.3534 41.7292 50.405 41.7334C50.4373 41.7374 50.469 41.7465 50.4978 41.7607L50.5076 41.7656C50.5156 41.7693 50.5333 41.7794 50.5652 41.8115C50.6022 41.8489 50.6318 41.8861 50.6902 41.9551C50.8594 42.1547 51.0148 42.3358 51.1794 42.5312C51.1807 42.5332 51.1822 42.5347 51.1824 42.5361L51.1804 42.542L50.866 43.1396L50.864 43.1436C50.8263 43.2169 50.7985 43.2952 50.782 43.376L50.78 43.3857L50.7791 43.3945C50.761 43.5096 50.7656 43.6273 50.7937 43.7402L50.7966 43.75C50.8184 43.8291 50.851 43.9053 50.8933 43.9756V43.9766L50.9011 43.9873C51.0127 44.1596 51.1819 44.2854 51.3777 44.3438V44.3447C51.5167 44.3869 51.6647 44.3922 51.8064 44.3604L51.8054 44.3594C51.9087 44.3371 52.0067 44.2956 52.0945 44.2363C52.212 44.1579 52.307 44.0511 52.3728 43.9258L52.3738 43.9268L53.7673 41.3867L53.7761 41.3711L53.783 41.3535C53.7972 41.3212 53.8187 41.2922 53.8455 41.2676C53.8722 41.243 53.904 41.2232 53.9392 41.2109C53.9746 41.1987 54.0129 41.1935 54.0505 41.1963C54.0879 41.1991 54.1242 41.2095 54.157 41.2266L54.1589 41.2275C55.049 41.6878 55.9333 42.1495 56.7996 42.6367L57.6599 43.1338C57.9771 43.326 58.2653 43.4985 58.5242 43.7061L58.532 43.7119C58.6383 43.7931 58.7227 43.9187 58.8298 44.1113V44.1123C58.9552 44.3512 59.0656 44.5983 59.1619 44.8535C59.2585 45.1101 59.3234 45.2611 59.3347 45.4238V45.5469C59.3179 45.7997 59.2243 46.6635 59.075 47.4883C58.9992 47.9067 58.9117 48.2998 58.8171 48.5928C58.7694 48.7406 58.7249 48.8471 58.6873 48.9141C58.6825 48.9225 58.6764 48.9286 58.6726 48.9346C58.5341 48.9774 58.3711 48.9814 58.1277 48.9775H42.3835C42.2253 48.9798 42.0701 48.944 41.9304 48.875L41.7966 48.7949C41.7286 48.7456 41.6699 48.6859 41.6189 48.6201C41.6156 48.6057 41.6106 48.5869 41.6062 48.5625C41.5912 48.4787 41.5763 48.3609 41.5613 48.2148C41.5315 47.9243 41.5055 47.5492 41.4841 47.167C41.4628 46.7854 41.446 46.402 41.4343 46.0977L41.4148 45.5029V45.4736L41.4304 45.3125C41.4388 45.2682 41.4506 45.2243 41.4656 45.1816L41.4646 45.1807C41.5594 44.9141 41.6597 44.6572 41.7732 44.4092C41.9116 44.1166 42.0163 43.9025 42.1765 43.7471C42.4354 43.5254 42.7329 43.351 43.074 43.1396C44.122 42.5152 45.2053 41.9457 46.3005 41.376C46.3684 41.3432 46.4373 41.3058 46.49 41.2783C46.5403 41.2521 46.583 41.2313 46.6228 41.2139C46.6472 41.2059 46.6723 41.1991 46.698 41.1963ZM50.2722 30.3105C50.8592 30.2979 51.446 30.3559 52.0193 30.4834V30.4844C52.6269 30.6305 53.1929 30.9021 53.6121 31.3125L53.615 31.3145C54.0445 31.7271 54.3287 32.2873 54.4861 32.8916V32.8926C54.6172 33.3934 54.6714 33.9222 54.6804 34.4609C54.7029 35.7707 54.3125 37.0533 53.5652 38.1318L53.4109 38.3447C53.0197 38.8605 52.5552 39.3155 52.0232 39.6621L52.0193 39.665C51.7169 39.8673 51.3843 40.0226 51.0339 40.126L51.033 40.127C50.6919 40.2284 50.33 40.2436 49.9812 40.1719H49.9802C49.4487 40.0603 48.9488 39.7958 48.49 39.4502L48.2957 39.2969C47.275 38.4316 46.556 37.2723 46.238 35.9834L46.2371 35.9824C46.0384 35.1842 46.028 34.3383 46.1443 33.5029L46.1433 33.502C46.2455 32.7995 46.4737 32.1304 46.8914 31.6074L46.8943 31.6045C47.2412 31.1607 47.74 30.8275 48.2957 30.6299L48.5007 30.5615C48.9767 30.415 49.4864 30.3465 50.0066 30.3232L50.2722 30.3105Z" stroke="url(#paint10_linear_501_4898)" stroke-width="0.830396" shape-rendering="crispEdges"/>
</g>
<g id="Vector_2" filter="url(#filter7_ddd_501_4898)">
<path d="M58.128 39.6445C60.3338 39.8873 61.8223 40.9473 62.5943 42.8252C63.3662 44.7031 63.2264 46.5663 62.1743 48.4152L63.126 49.5878L61.8626 50.8945L60.8357 49.8266C59.5463 50.734 58.07 51.0109 56.4072 50.6578C55.579 50.4818 54.8797 50.1836 54.3093 49.7631L54.2337 49.8271L54.209 49.7994C54.2178 49.8504 54.2228 49.9032 54.2228 49.9569C54.2228 50.4268 53.8654 50.808 53.4244 50.808C52.9834 50.808 52.626 50.4272 52.626 49.9569C52.626 49.487 52.9834 49.1062 53.424 49.1062C53.4958 49.1062 53.5651 49.1162 53.631 49.1348C53.3676 48.8294 53.1477 48.487 52.9779 48.1179L53.7877 47.2365C54.6785 48.0968 55.6218 48.6294 56.6177 48.8345C57.6135 49.04 58.5749 48.9002 59.5018 48.4148L56.083 44.73L55.0451 45.7736L53.6142 44.0576L56.2321 41.3775L56.2372 41.3814L56.2254 41.3662C56.4673 41.4679 56.689 41.525 56.8902 41.5376L56.9339 41.5289L57.0087 41.5085C57.2859 41.4212 57.5812 41.265 57.8962 41.04L57.8659 41.0612L57.8882 41.0291L58.6996 41.8781L58.6979 41.879L58.708 41.8898L57.4237 43.3436L60.8257 47.0578L57.4257 43.3436L57.4237 43.3466L60.8357 47.0752C61.5699 46.2902 61.6908 45.0679 61.1982 43.4085C60.7055 41.7496 59.682 40.4948 58.128 39.6445Z" fill="#D2EAFF"/>
<path d="M58.5166 39.7783C59.4338 39.9273 60.2112 40.2315 60.8516 40.6875C61.5821 41.2078 62.1387 41.93 62.5195 42.8564C63.2813 44.7099 63.1439 46.5467 62.1035 48.375L62.0762 48.4229L62.1113 48.4658L63.0176 49.582L61.8623 50.7773L60.8945 49.7705L60.8457 49.7207L60.7891 49.7607C59.5197 50.6539 58.0664 50.9269 56.4238 50.5781C55.6049 50.404 54.9168 50.1106 54.3574 49.6982L54.3057 49.6602L54.2568 49.7012L54.2412 49.7139L54.0811 49.5352L54.1289 49.8135C54.137 49.8604 54.1416 49.9085 54.1416 49.957C54.1415 50.387 53.816 50.7263 53.4248 50.7266C53.0334 50.7266 52.7071 50.3875 52.707 49.957C52.707 49.527 53.0329 49.1876 53.4238 49.1875C53.4881 49.1875 53.5505 49.1963 53.6094 49.2129L53.8682 49.2861L53.6924 49.082C53.4453 48.7956 53.2386 48.475 53.0752 48.1309L53.792 47.3506C54.6741 48.1859 55.61 48.7099 56.6016 48.9141C57.6161 49.1234 58.5962 48.9801 59.5391 48.4863L59.6328 48.4375L59.5615 48.3594L56.1426 44.6748L56.085 44.6133L56.0254 44.6729L55.0498 45.6533L53.7227 44.0615L56.2588 41.4648C56.4823 41.553 56.6908 41.606 56.8848 41.6182L56.8955 41.6191L56.9062 41.6172L56.9492 41.6084L56.9336 41.5293L56.9502 41.6084L56.9551 41.6074L57.0303 41.5869L57.0332 41.5859C57.3039 41.5006 57.5867 41.351 57.8857 41.1436L58.5674 41.8564V41.8574L58.5977 41.8906L57.4238 43.2207L57.417 43.2139L57.3672 43.2852L57.3633 43.29L57.3145 43.3447L57.3213 43.3516L57.3203 43.3535L57.3643 43.4014L60.7764 47.1299L60.835 47.1943L60.8945 47.1309C61.6583 46.3143 61.7709 45.0549 61.2754 43.3857C60.8145 41.8339 59.8937 40.6309 58.5166 39.7783Z" stroke="url(#paint11_linear_501_4898)" stroke-width="0.162028"/>
</g>
</g>
</g>
</g>
<defs>
<filter id="filter0_dddd_501_4898" x="51.1738" y="5.37254" width="27.3914" height="27.3916" filterUnits="userSpaceOnUse" color-interpolation-filters="sRGB">
<feFlood flood-opacity="0" result="BackgroundImageFix"/>
<feColorMatrix in="SourceAlpha" type="matrix" values="0 0 0 0 0 0 0 0 0 0 0 0 0 0 0 0 0 0 127 0" result="hardAlpha"/>
<feOffset/>
<feGaussianBlur stdDeviation="1.30435"/>
<feComposite in2="hardAlpha" operator="out"/>
<feColorMatrix type="matrix" values="0 0 0 0 0 0 0 0 0 0.435294 0 0 0 0 1 0 0 0 1 0"/>
<feBlend mode="normal" in2="BackgroundImageFix" result="effect1_dropShadow_501_4898"/>
<feColorMatrix in="SourceAlpha" type="matrix" values="0 0 0 0 0 0 0 0 0 0 0 0 0 0 0 0 0 0 127 0" result="hardAlpha"/>
<feOffset/>
<feGaussianBlur stdDeviation="3.26087"/>
<feComposite in2="hardAlpha" operator="out"/>
<feColorMatrix type="matrix" values="0 0 0 0 0 0 0 0 0 0.435294 0 0 0 0 1 0 0 0 0.5 0"/>
<feBlend mode="normal" in2="effect1_dropShadow_501_4898" result="effect2_dropShadow_501_4898"/>
<feColorMatrix in="SourceAlpha" type="matrix" values="0 0 0 0 0 0 0 0 0 0 0 0 0 0 0 0 0 0 127 0" result="hardAlpha"/>
<feOffset/>
<feGaussianBlur stdDeviation="4.8913"/>
<feComposite in2="hardAlpha" operator="out"/>
<feColorMatrix type="matrix" values="0 0 0 0 0 0 0 0 0 0.435294 0 0 0 0 1 0 0 0 0.5 0"/>
<feBlend mode="normal" in2="effect2_dropShadow_501_4898" result="effect3_dropShadow_501_4898"/>
<feColorMatrix in="SourceAlpha" type="matrix" values="0 0 0 0 0 0 0 0 0 0 0 0 0 0 0 0 0 0 127 0" result="hardAlpha"/>
<feOffset/>
<feGaussianBlur stdDeviation="6.52174"/>
<feComposite in2="hardAlpha" operator="out"/>
<feColorMatrix type="matrix" values="0 0 0 0 0 0 0 0 0 0.433333 0 0 0 0 1 0 0 0 0.5 0"/>
<feBlend mode="normal" in2="effect3_dropShadow_501_4898" result="effect4_dropShadow_501_4898"/>
<feBlend mode="normal" in="SourceGraphic" in2="effect4_dropShadow_501_4898" result="shape"/>
</filter>
<filter id="filter1_dddd_501_4898" x="57.3691" y="27.5464" width="27.3914" height="27.3916" filterUnits="userSpaceOnUse" color-interpolation-filters="sRGB">
<feFlood flood-opacity="0" result="BackgroundImageFix"/>
<feColorMatrix in="SourceAlpha" type="matrix" values="0 0 0 0 0 0 0 0 0 0 0 0 0 0 0 0 0 0 127 0" result="hardAlpha"/>
<feOffset/>
<feGaussianBlur stdDeviation="1.30435"/>
<feComposite in2="hardAlpha" operator="out"/>
<feColorMatrix type="matrix" values="0 0 0 0 0 0 0 0 0 0.435294 0 0 0 0 1 0 0 0 1 0"/>
<feBlend mode="normal" in2="BackgroundImageFix" result="effect1_dropShadow_501_4898"/>
<feColorMatrix in="SourceAlpha" type="matrix" values="0 0 0 0 0 0 0 0 0 0 0 0 0 0 0 0 0 0 127 0" result="hardAlpha"/>
<feOffset/>
<feGaussianBlur stdDeviation="3.26087"/>
<feComposite in2="hardAlpha" operator="out"/>
<feColorMatrix type="matrix" values="0 0 0 0 0 0 0 0 0 0.435294 0 0 0 0 1 0 0 0 0.5 0"/>
<feBlend mode="normal" in2="effect1_dropShadow_501_4898" result="effect2_dropShadow_501_4898"/>
<feColorMatrix in="SourceAlpha" type="matrix" values="0 0 0 0 0 0 0 0 0 0 0 0 0 0 0 0 0 0 127 0" result="hardAlpha"/>
<feOffset/>
<feGaussianBlur stdDeviation="4.8913"/>
<feComposite in2="hardAlpha" operator="out"/>
<feColorMatrix type="matrix" values="0 0 0 0 0 0 0 0 0 0.435294 0 0 0 0 1 0 0 0 0.5 0"/>
<feBlend mode="normal" in2="effect2_dropShadow_501_4898" result="effect3_dropShadow_501_4898"/>
<feColorMatrix in="SourceAlpha" type="matrix" values="0 0 0 0 0 0 0 0 0 0 0 0 0 0 0 0 0 0 127 0" result="hardAlpha"/>
<feOffset/>
<feGaussianBlur stdDeviation="6.52174"/>
<feComposite in2="hardAlpha" operator="out"/>
<feColorMatrix type="matrix" values="0 0 0 0 0 0 0 0 0 0.433333 0 0 0 0 1 0 0 0 0.5 0"/>
<feBlend mode="normal" in2="effect3_dropShadow_501_4898" result="effect4_dropShadow_501_4898"/>
<feBlend mode="normal" in="SourceGraphic" in2="effect4_dropShadow_501_4898" result="shape"/>
</filter>
<filter id="filter2_dddd_501_4898" x="11.4563" y="15.3511" width="27.3914" height="27.3916" filterUnits="userSpaceOnUse" color-interpolation-filters="sRGB">
<feFlood flood-opacity="0" result="BackgroundImageFix"/>
<feColorMatrix in="SourceAlpha" type="matrix" values="0 0 0 0 0 0 0 0 0 0 0 0 0 0 0 0 0 0 127 0" result="hardAlpha"/>
<feOffset/>
<feGaussianBlur stdDeviation="1.30435"/>
<feComposite in2="hardAlpha" operator="out"/>
<feColorMatrix type="matrix" values="0 0 0 0 0 0 0 0 0 0.435294 0 0 0 0 1 0 0 0 1 0"/>
<feBlend mode="normal" in2="BackgroundImageFix" result="effect1_dropShadow_501_4898"/>
<feColorMatrix in="SourceAlpha" type="matrix" values="0 0 0 0 0 0 0 0 0 0 0 0 0 0 0 0 0 0 127 0" result="hardAlpha"/>
<feOffset/>
<feGaussianBlur stdDeviation="3.26087"/>
<feComposite in2="hardAlpha" operator="out"/>
<feColorMatrix type="matrix" values="0 0 0 0 0 0 0 0 0 0.435294 0 0 0 0 1 0 0 0 0.5 0"/>
<feBlend mode="normal" in2="effect1_dropShadow_501_4898" result="effect2_dropShadow_501_4898"/>
<feColorMatrix in="SourceAlpha" type="matrix" values="0 0 0 0 0 0 0 0 0 0 0 0 0 0 0 0 0 0 127 0" result="hardAlpha"/>
<feOffset/>
<feGaussianBlur stdDeviation="4.8913"/>
<feComposite in2="hardAlpha" operator="out"/>
<feColorMatrix type="matrix" values="0 0 0 0 0 0 0 0 0 0.435294 0 0 0 0 1 0 0 0 0.5 0"/>
<feBlend mode="normal" in2="effect2_dropShadow_501_4898" result="effect3_dropShadow_501_4898"/>
<feColorMatrix in="SourceAlpha" type="matrix" values="0 0 0 0 0 0 0 0 0 0 0 0 0 0 0 0 0 0 127 0" result="hardAlpha"/>
<feOffset/>
<feGaussianBlur stdDeviation="6.52174"/>
<feComposite in2="hardAlpha" operator="out"/>
<feColorMatrix type="matrix" values="0 0 0 0 0 0 0 0 0 0.433333 0 0 0 0 1 0 0 0 0.5 0"/>
<feBlend mode="normal" in2="effect3_dropShadow_501_4898" result="effect4_dropShadow_501_4898"/>
<feBlend mode="normal" in="SourceGraphic" in2="effect4_dropShadow_501_4898" result="shape"/>
</filter>
<filter id="filter3_dddd_501_4898" x="28.6738" y="0.481913" width="28.0435" height="28.044" filterUnits="userSpaceOnUse" color-interpolation-filters="sRGB">
<feFlood flood-opacity="0" result="BackgroundImageFix"/>
<feColorMatrix in="SourceAlpha" type="matrix" values="0 0 0 0 0 0 0 0 0 0 0 0 0 0 0 0 0 0 127 0" result="hardAlpha"/>
<feOffset/>
<feGaussianBlur stdDeviation="1.30435"/>
<feComposite in2="hardAlpha" operator="out"/>
<feColorMatrix type="matrix" values="0 0 0 0 0 0 0 0 0 0.435294 0 0 0 0 1 0 0 0 1 0"/>
<feBlend mode="normal" in2="BackgroundImageFix" result="effect1_dropShadow_501_4898"/>
<feColorMatrix in="SourceAlpha" type="matrix" values="0 0 0 0 0 0 0 0 0 0 0 0 0 0 0 0 0 0 127 0" result="hardAlpha"/>
<feOffset/>
<feGaussianBlur stdDeviation="3.26087"/>
<feComposite in2="hardAlpha" operator="out"/>
<feColorMatrix type="matrix" values="0 0 0 0 0 0 0 0 0 0.435294 0 0 0 0 1 0 0 0 0.5 0"/>
<feBlend mode="normal" in2="effect1_dropShadow_501_4898" result="effect2_dropShadow_501_4898"/>
<feColorMatrix in="SourceAlpha" type="matrix" values="0 0 0 0 0 0 0 0 0 0 0 0 0 0 0 0 0 0 127 0" result="hardAlpha"/>
<feOffset/>
<feGaussianBlur stdDeviation="4.8913"/>
<feComposite in2="hardAlpha" operator="out"/>
<feColorMatrix type="matrix" values="0 0 0 0 0 0 0 0 0 0.435294 0 0 0 0 1 0 0 0 0.5 0"/>
<feBlend mode="normal" in2="effect2_dropShadow_501_4898" result="effect3_dropShadow_501_4898"/>
<feColorMatrix in="SourceAlpha" type="matrix" values="0 0 0 0 0 0 0 0 0 0 0 0 0 0 0 0 0 0 127 0" result="hardAlpha"/>
<feOffset/>
<feGaussianBlur stdDeviation="6.52174"/>
<feComposite in2="hardAlpha" operator="out"/>
<feColorMatrix type="matrix" values="0 0 0 0 0 0 0 0 0 0.433333 0 0 0 0 1 0 0 0 0.5 0"/>
<feBlend mode="normal" in2="effect3_dropShadow_501_4898" result="effect4_dropShadow_501_4898"/>
<feBlend mode="normal" in="SourceGraphic" in2="effect4_dropShadow_501_4898" result="shape"/>
</filter>
<filter id="filter4_dddd_501_4898" x="24.1084" y="43.8511" width="28.6956" height="28.6963" filterUnits="userSpaceOnUse" color-interpolation-filters="sRGB">
<feFlood flood-opacity="0" result="BackgroundImageFix"/>
<feColorMatrix in="SourceAlpha" type="matrix" values="0 0 0 0 0 0 0 0 0 0 0 0 0 0 0 0 0 0 127 0" result="hardAlpha"/>
<feOffset/>
<feGaussianBlur stdDeviation="1.30435"/>
<feComposite in2="hardAlpha" operator="out"/>
<feColorMatrix type="matrix" values="0 0 0 0 0 0 0 0 0 0.435294 0 0 0 0 1 0 0 0 1 0"/>
<feBlend mode="normal" in2="BackgroundImageFix" result="effect1_dropShadow_501_4898"/>
<feColorMatrix in="SourceAlpha" type="matrix" values="0 0 0 0 0 0 0 0 0 0 0 0 0 0 0 0 0 0 127 0" result="hardAlpha"/>
<feOffset/>
<feGaussianBlur stdDeviation="3.26087"/>
<feComposite in2="hardAlpha" operator="out"/>
<feColorMatrix type="matrix" values="0 0 0 0 0 0 0 0 0 0.435294 0 0 0 0 1 0 0 0 0.5 0"/>
<feBlend mode="normal" in2="effect1_dropShadow_501_4898" result="effect2_dropShadow_501_4898"/>
<feColorMatrix in="SourceAlpha" type="matrix" values="0 0 0 0 0 0 0 0 0 0 0 0 0 0 0 0 0 0 127 0" result="hardAlpha"/>
<feOffset/>
<feGaussianBlur stdDeviation="4.8913"/>
<feComposite in2="hardAlpha" operator="out"/>
<feColorMatrix type="matrix" values="0 0 0 0 0 0 0 0 0 0.435294 0 0 0 0 1 0 0 0 0.5 0"/>
<feBlend mode="normal" in2="effect2_dropShadow_501_4898" result="effect3_dropShadow_501_4898"/>
<feColorMatrix in="SourceAlpha" type="matrix" values="0 0 0 0 0 0 0 0 0 0 0 0 0 0 0 0 0 0 127 0" result="hardAlpha"/>
<feOffset/>
<feGaussianBlur stdDeviation="6.52174"/>
<feComposite in2="hardAlpha" operator="out"/>
<feColorMatrix type="matrix" values="0 0 0 0 0 0 0 0 0 0.433333 0 0 0 0 1 0 0 0 0.5 0"/>
<feBlend mode="normal" in2="effect3_dropShadow_501_4898" result="effect4_dropShadow_501_4898"/>
<feBlend mode="normal" in="SourceGraphic" in2="effect4_dropShadow_501_4898" result="shape"/>
</filter>
<filter id="filter5_dddd_501_4898" x="46.2824" y="46.4604" width="28.0435" height="28.044" filterUnits="userSpaceOnUse" color-interpolation-filters="sRGB">
<feFlood flood-opacity="0" result="BackgroundImageFix"/>
<feColorMatrix in="SourceAlpha" type="matrix" values="0 0 0 0 0 0 0 0 0 0 0 0 0 0 0 0 0 0 127 0" result="hardAlpha"/>
<feOffset/>
<feGaussianBlur stdDeviation="1.30435"/>
<feComposite in2="hardAlpha" operator="out"/>
<feColorMatrix type="matrix" values="0 0 0 0 0 0 0 0 0 0.435294 0 0 0 0 1 0 0 0 1 0"/>
<feBlend mode="normal" in2="BackgroundImageFix" result="effect1_dropShadow_501_4898"/>
<feColorMatrix in="SourceAlpha" type="matrix" values="0 0 0 0 0 0 0 0 0 0 0 0 0 0 0 0 0 0 127 0" result="hardAlpha"/>
<feOffset/>
<feGaussianBlur stdDeviation="3.26087"/>
<feComposite in2="hardAlpha" operator="out"/>
<feColorMatrix type="matrix" values="0 0 0 0 0 0 0 0 0 0.435294 0 0 0 0 1 0 0 0 0.5 0"/>
<feBlend mode="normal" in2="effect1_dropShadow_501_4898" result="effect2_dropShadow_501_4898"/>
<feColorMatrix in="SourceAlpha" type="matrix" values="0 0 0 0 0 0 0 0 0 0 0 0 0 0 0 0 0 0 127 0" result="hardAlpha"/>
<feOffset/>
<feGaussianBlur stdDeviation="4.8913"/>
<feComposite in2="hardAlpha" operator="out"/>
<feColorMatrix type="matrix" values="0 0 0 0 0 0 0 0 0 0.435294 0 0 0 0 1 0 0 0 0.5 0"/>
<feBlend mode="normal" in2="effect2_dropShadow_501_4898" result="effect3_dropShadow_501_4898"/>
<feColorMatrix in="SourceAlpha" type="matrix" values="0 0 0 0 0 0 0 0 0 0 0 0 0 0 0 0 0 0 127 0" result="hardAlpha"/>
<feOffset/>
<feGaussianBlur stdDeviation="6.52174"/>
<feComposite in2="hardAlpha" operator="out"/>
<feColorMatrix type="matrix" values="0 0 0 0 0 0 0 0 0 0.433333 0 0 0 0 1 0 0 0 0.5 0"/>
<feBlend mode="normal" in2="effect3_dropShadow_501_4898" result="effect4_dropShadow_501_4898"/>
<feBlend mode="normal" in="SourceGraphic" in2="effect4_dropShadow_501_4898" result="shape"/>
</filter>
<filter id="filter6_dd_501_4898" x="7.78392" y="0.000282764" width="85.1817" height="85.9317" filterUnits="userSpaceOnUse" color-interpolation-filters="sRGB">
<feFlood flood-opacity="0" result="BackgroundImageFix"/>
<feColorMatrix in="SourceAlpha" type="matrix" values="0 0 0 0 0 0 0 0 0 0 0 0 0 0 0 0 0 0 127 0" result="hardAlpha"/>
<feOffset dy="3.32158"/>
<feGaussianBlur stdDeviation="16.6079"/>
<feComposite in2="hardAlpha" operator="out"/>
<feColorMatrix type="matrix" values="0 0 0 0 0 0 0 0 0 0 0 0 0 0 0 0 0 0 0.35 0"/>
<feBlend mode="normal" in2="BackgroundImageFix" result="effect1_dropShadow_501_4898"/>
<feColorMatrix in="SourceAlpha" type="matrix" values="0 0 0 0 0 0 0 0 0 0 0 0 0 0 0 0 0 0 127 0" result="hardAlpha"/>
<feOffset dy="3.32158"/>
<feGaussianBlur stdDeviation="8.30396"/>
<feComposite in2="hardAlpha" operator="out"/>
<feColorMatrix type="matrix" values="0 0 0 0 0 0 0 0 0 0 0 0 0 0 0 0 0 0 0.35 0"/>
<feBlend mode="normal" in2="effect1_dropShadow_501_4898" result="effect2_dropShadow_501_4898"/>
<feBlend mode="normal" in="SourceGraphic" in2="effect2_dropShadow_501_4898" result="shape"/>
</filter>
<filter id="filter7_ddd_501_4898" x="19.4101" y="6.4287" width="76.9317" height="77.6817" filterUnits="userSpaceOnUse" color-interpolation-filters="sRGB">
<feFlood flood-opacity="0" result="BackgroundImageFix"/>
<feColorMatrix in="SourceAlpha" type="matrix" values="0 0 0 0 0 0 0 0 0 0 0 0 0 0 0 0 0 0 127 0" result="hardAlpha"/>
<feOffset/>
<feGaussianBlur stdDeviation="16.6079"/>
<feComposite in2="hardAlpha" operator="out"/>
<feColorMatrix type="matrix" values="0 0 0 0 0.239216 0 0 0 0 0.505882 0 0 0 0 1 0 0 0 1 0"/>
<feBlend mode="normal" in2="BackgroundImageFix" result="effect1_dropShadow_501_4898"/>
<feColorMatrix in="SourceAlpha" type="matrix" values="0 0 0 0 0 0 0 0 0 0 0 0 0 0 0 0 0 0 127 0" result="hardAlpha"/>
<feOffset/>
<feGaussianBlur stdDeviation="8.30396"/>
<feComposite in2="hardAlpha" operator="out"/>
<feColorMatrix type="matrix" values="0 0 0 0 0.239216 0 0 0 0 0.505882 0 0 0 0 1 0 0 0 1 0"/>
<feBlend mode="normal" in2="effect1_dropShadow_501_4898" result="effect2_dropShadow_501_4898"/>
<feColorMatrix in="SourceAlpha" type="matrix" values="0 0 0 0 0 0 0 0 0 0 0 0 0 0 0 0 0 0 127 0" result="hardAlpha"/>
<feOffset/>
<feGaussianBlur stdDeviation="4.15198"/>
<feComposite in2="hardAlpha" operator="out"/>
<feColorMatrix type="matrix" values="0 0 0 0 0.239216 0 0 0 0 0.50549 0 0 0 0 1 0 0 0 1 0"/>
<feBlend mode="normal" in2="effect2_dropShadow_501_4898" result="effect3_dropShadow_501_4898"/>
<feBlend mode="normal" in="SourceGraphic" in2="effect3_dropShadow_501_4898" result="shape"/>
</filter>
<linearGradient id="paint0_linear_501_4898" x1="87.47" y1="52.4312" x2="51.4998" y2="16.4609" gradientUnits="userSpaceOnUse">
<stop stop-color="#001D7D" stop-opacity="0"/>
<stop offset="1" stop-color="#5A91FF" stop-opacity="0.7"/>
</linearGradient>
<linearGradient id="paint1_linear_501_4898" x1="51.4998" y1="16.4609" x2="87.47" y2="52.4312" gradientUnits="userSpaceOnUse">
<stop stop-color="#D7E1FF"/>
<stop offset="1" stop-color="#D7E5FF" stop-opacity="0"/>
</linearGradient>
<linearGradient id="paint2_linear_501_4898" x1="51.4998" y1="11.8945" x2="93.9262" y2="54.3209" gradientUnits="userSpaceOnUse">
<stop stop-color="#D7E1FF"/>
<stop offset="1" stop-color="#D7E5FF" stop-opacity="0"/>
</linearGradient>
<linearGradient id="paint3_linear_501_4898" x1="64.2173" y1="18.416" x2="65.5216" y2="19.7204" gradientUnits="userSpaceOnUse">
<stop stop-color="#D7E1FF"/>
<stop offset="1" stop-color="#D7E5FF" stop-opacity="0"/>
</linearGradient>
<linearGradient id="paint4_linear_501_4898" x1="70.4126" y1="40.5898" x2="71.7169" y2="41.8942" gradientUnits="userSpaceOnUse">
<stop stop-color="#D7E1FF"/>
<stop offset="1" stop-color="#D7E5FF" stop-opacity="0"/>
</linearGradient>
<linearGradient id="paint5_linear_501_4898" x1="24.4998" y1="28.3945" x2="25.8041" y2="29.6989" gradientUnits="userSpaceOnUse">
<stop stop-color="#D7E1FF"/>
<stop offset="1" stop-color="#D7E5FF" stop-opacity="0"/>
</linearGradient>
<linearGradient id="paint6_linear_501_4898" x1="41.7173" y1="13.5254" x2="43.6738" y2="15.4819" gradientUnits="userSpaceOnUse">
<stop stop-color="#D7E1FF"/>
<stop offset="1" stop-color="#D7E5FF" stop-opacity="0"/>
</linearGradient>
<linearGradient id="paint7_linear_501_4898" x1="37.1519" y1="56.8945" x2="39.7606" y2="59.5032" gradientUnits="userSpaceOnUse">
<stop stop-color="#D7E1FF"/>
<stop offset="1" stop-color="#D7E5FF" stop-opacity="0"/>
</linearGradient>
<linearGradient id="paint8_linear_501_4898" x1="59.3259" y1="59.5039" x2="61.2824" y2="61.4604" gradientUnits="userSpaceOnUse">
<stop stop-color="#D7E1FF"/>
<stop offset="1" stop-color="#D7E5FF" stop-opacity="0"/>
</linearGradient>
<linearGradient id="paint9_linear_501_4898" x1="40.9998" y1="39.6445" x2="59.7499" y2="39.6445" gradientUnits="userSpaceOnUse">
<stop stop-color="#DEEDFF" stop-opacity="0.4"/>
<stop offset="1" stop-color="#DEEAFF" stop-opacity="0"/>
</linearGradient>
<linearGradient id="paint10_linear_501_4898" x1="40.9998" y1="29.8945" x2="60.4848" y2="48.6301" gradientUnits="userSpaceOnUse">
<stop stop-color="#D7E1FF"/>
<stop offset="1" stop-color="#D7E5FF" stop-opacity="0"/>
</linearGradient>
<linearGradient id="paint11_linear_501_4898" x1="52.626" y1="39.6445" x2="63.8493" y2="50.1196" gradientUnits="userSpaceOnUse">
<stop stop-color="#D7E1FF"/>
<stop offset="1" stop-color="#D7E5FF" stop-opacity="0"/>
</linearGradient>
</defs>
</svg>
