<svg width="103" height="86" viewBox="0 0 103 86" fill="none" xmlns="http://www.w3.org/2000/svg">
<g id="&#231;&#161;&#149;&#229;&#163;&#171;&#228;&#186;&#186;&#230;&#149;&#176;">
<g id="Group 1000018963">
<g id="Group 1000018962">
<rect id="Rectangle 346241291" x="51.4998" y="17.7413" width="35.2202" height="35.2202" transform="rotate(45 51.4998 17.7413)" fill="url(#paint0_linear_501_4856)" fill-opacity="0.5" stroke="url(#paint1_linear_501_4856)" stroke-width="0.75"/>
<rect id="Rectangle 346241292" x="51.4998" y="13.1057" width="41.7742" height="41.7742" transform="rotate(45 51.4998 13.1057)" stroke="url(#paint2_linear_501_4856)" stroke-width="0.652174"/>
</g>
<g id="&#232;&#163;&#133;&#233;&#165;&#176;">
<g id="Rectangle 346241293" filter="url(#filter0_dddd_501_4856)">
<path d="M64.2173 19.166H65.5216V20.4704H64.2173V19.166Z" fill="white"/>
<path d="M65.1958 19.4922V20.1445H64.5435V19.4922H65.1958Z" stroke="url(#paint3_linear_501_4856)" stroke-width="0.652174"/>
</g>
<g id="Rectangle 346241298" filter="url(#filter1_dddd_501_4856)">
<path d="M70.4126 41.3398H71.7169V42.6442H70.4126V41.3398Z" fill="white"/>
<path d="M71.3911 41.666V42.3184H70.7388V41.666H71.3911Z" stroke="url(#paint4_linear_501_4856)" stroke-width="0.652174"/>
</g>
<g id="Rectangle 346241294" filter="url(#filter2_dddd_501_4856)">
<path d="M24.4998 29.1445H25.8041V30.4489H24.4998V29.1445Z" fill="white"/>
<path d="M25.4783 29.4707V30.123H24.8259V29.4707H25.4783Z" stroke="url(#paint5_linear_501_4856)" stroke-width="0.652174"/>
</g>
<g id="Rectangle 346241295" filter="url(#filter3_dddd_501_4856)">
<path d="M41.7173 14.2754H43.6738V16.2319H41.7173V14.2754Z" fill="white"/>
<path d="M43.3481 14.6016V15.9062H42.0435V14.6016H43.3481Z" stroke="url(#paint6_linear_501_4856)" stroke-width="0.652174"/>
</g>
<g id="Rectangle 346241296" filter="url(#filter4_dddd_501_4856)">
<rect x="37.1519" y="57.6445" width="2.6087" height="2.6087" fill="white"/>
<rect x="37.4779" y="57.9706" width="1.95652" height="1.95652" stroke="url(#paint7_linear_501_4856)" stroke-width="0.652174"/>
</g>
<g id="Rectangle 346241297" filter="url(#filter5_dddd_501_4856)">
<path d="M59.3259 60.2539H61.2824V62.2104H59.3259V60.2539Z" fill="white"/>
<path d="M60.9568 60.5801V61.8848H59.6521V60.5801H60.9568Z" stroke="url(#paint8_linear_501_4856)" stroke-width="0.652174"/>
</g>
</g>
<g id="Group 1000018964">
<g id="Vector" filter="url(#filter6_dd_501_4856)">
<path d="M49.2364 29.9072C49.9509 29.8663 50.6677 29.9246 51.3658 30.0805C52.0261 30.2391 52.6663 30.5393 53.1524 31.0154C53.6506 31.4941 53.9667 32.1288 54.1381 32.7874C54.2801 33.3296 54.3364 33.8929 54.3457 34.4536C54.3714 35.9441 53.8951 37.4009 52.9917 38.5953C52.5765 39.1427 52.0783 39.6333 51.4998 40.0102C51.1623 40.2359 50.792 40.4094 50.4015 40.5246C49.9948 40.6457 49.5639 40.6643 49.148 40.5789C48.4515 40.4334 47.8248 40.0631 47.2823 39.6175C46.1929 38.6956 45.4241 37.4592 45.0846 36.0828C44.8703 35.2219 44.8609 34.3213 44.9828 33.4459C45.0913 32.6975 45.3377 31.949 45.8172 31.3486C46.2203 30.8329 46.7895 30.4587 47.4069 30.2391C47.9922 30.0262 48.6176 29.9363 49.2377 29.9085L49.2364 29.9072ZM45.7274 40.8235C45.7842 40.8036 45.843 40.7903 45.9029 40.7838C46.0082 40.7718 46.1149 40.7854 46.2136 40.8235C46.2834 40.8508 46.3485 40.8887 46.4065 40.9359C46.523 41.0271 46.5846 41.1633 46.6529 41.289L47.9493 43.656C47.9866 43.7428 48.0445 43.8194 48.1181 43.8795C48.2042 43.9404 48.3094 43.969 48.4149 43.9603C48.5204 43.9516 48.6193 43.9061 48.694 43.8319C48.8279 43.697 48.852 43.4749 48.7569 43.3135L48.4542 42.7449C48.4203 42.685 48.4019 42.6178 48.4006 42.5492C48.3997 42.4961 48.4083 42.4433 48.4261 42.3932C48.4537 42.3225 48.4956 42.2581 48.5493 42.2041C48.7408 41.9806 48.9297 41.7571 49.1225 41.5349C49.1794 41.4755 49.2459 41.4259 49.3194 41.3882C49.4356 41.3316 49.5654 41.3078 49.6944 41.3194C49.7769 41.3282 49.8572 41.3515 49.9315 41.3882C50.0694 41.4516 50.1618 41.5746 50.2569 41.687C50.4216 41.8814 50.5877 42.0731 50.7524 42.2689C50.805 42.334 50.8373 42.4127 50.8454 42.4956C50.8535 42.5785 50.837 42.6619 50.798 42.7357L50.4832 43.3334C50.4628 43.3731 50.448 43.4153 50.439 43.459C50.4296 43.5193 50.4323 43.5809 50.4471 43.6402C50.4588 43.6829 50.4764 43.7238 50.4993 43.7618C50.5571 43.8511 50.6455 43.9169 50.7484 43.947C50.8188 43.9683 50.8936 43.971 50.9654 43.9549C51.0181 43.9439 51.0682 43.9228 51.1127 43.8927C51.1756 43.8513 51.2263 43.7943 51.26 43.7274L52.6529 41.1871C52.6903 41.1017 52.7452 41.0249 52.8142 40.9615C52.8832 40.8981 52.9647 40.8494 53.0536 40.8186C53.1426 40.7878 53.237 40.7755 53.331 40.7825C53.425 40.7895 53.5165 40.8156 53.5998 40.8592C54.7864 41.4728 55.973 42.093 57.1221 42.7767C57.4341 42.9658 57.7489 43.1535 58.0341 43.3823C58.2176 43.5225 58.3382 43.7208 58.448 43.9192C58.5819 44.1744 58.6984 44.4376 58.8002 44.7073C58.8859 44.9348 58.985 45.1609 58.9998 45.4056V45.5629C58.9676 46.0786 58.6154 49.1296 58.1212 49.3082C57.8828 49.402 57.6243 49.3968 57.3712 49.3928H41.6399C41.3408 49.3972 41.0482 49.3063 40.8056 49.1336C40.6888 49.0494 40.5869 48.9466 40.5042 48.8295C40.345 48.612 40.2563 45.7809 40.2498 45.5127V45.4598C40.2521 45.3889 40.2589 45.3183 40.2698 45.2482C40.2822 45.179 40.3001 45.1109 40.3234 45.0445C40.4212 44.7695 40.5256 44.4971 40.6475 44.2313C40.7801 43.9509 40.9154 43.6613 41.1431 43.4431C41.4364 43.1892 41.7752 42.9922 42.106 42.7872C43.1707 42.1525 44.269 41.5746 45.3698 41.002C45.4904 40.9438 45.6056 40.8751 45.7288 40.8235H45.7274Z" fill="url(#paint9_linear_501_4856)" shape-rendering="crispEdges"/>
<path d="M45.948 41.1963H46.0085L46.0642 41.2109L46.1443 41.2578L46.1501 41.2627C46.1572 41.2682 46.172 41.2823 46.196 41.3203C46.2081 41.3395 46.2216 41.3621 46.2371 41.3906C46.2448 41.4049 46.2518 41.4201 46.2605 41.4365C46.2689 41.4523 46.2782 41.4697 46.2878 41.4873L46.2888 41.4883L47.5847 43.8555V43.8545C47.6485 43.9885 47.7402 44.1072 47.8552 44.2012L47.8787 44.2188C48.0447 44.336 48.2468 44.3907 48.449 44.374C48.6511 44.3573 48.8416 44.2702 48.9861 44.127L48.989 44.124C49.2551 43.8556 49.3001 43.4357 49.1218 43.1182H49.1238L48.821 42.5498L48.8162 42.542V42.5381C48.8228 42.5233 48.8316 42.5092 48.8435 42.4971L48.8542 42.4854L48.865 42.4746C49.0547 42.2532 49.2354 42.0381 49.4226 41.8223C49.4465 41.7973 49.4745 41.7762 49.5056 41.7598C49.552 41.7382 49.6034 41.7292 49.655 41.7334C49.6873 41.7374 49.719 41.7465 49.7478 41.7607L49.7576 41.7656C49.7656 41.7693 49.7833 41.7794 49.8152 41.8115C49.8522 41.8489 49.8818 41.8861 49.9402 41.9551C50.1094 42.1547 50.2648 42.3358 50.4294 42.5312C50.4307 42.5332 50.4322 42.5347 50.4324 42.5361L50.4304 42.542L50.116 43.1396L50.114 43.1436C50.0763 43.2169 50.0485 43.2952 50.032 43.376L50.03 43.3857L50.0291 43.3945C50.011 43.5096 50.0156 43.6273 50.0437 43.7402L50.0466 43.75C50.0684 43.8291 50.101 43.9053 50.1433 43.9756V43.9766L50.1511 43.9873C50.2627 44.1596 50.4319 44.2854 50.6277 44.3438V44.3447C50.7667 44.3869 50.9147 44.3922 51.0564 44.3604L51.0554 44.3594C51.1587 44.3371 51.2567 44.2956 51.3445 44.2363C51.462 44.1579 51.557 44.0511 51.6228 43.9258L51.6238 43.9268L53.0173 41.3867L53.0261 41.3711L53.033 41.3535C53.0472 41.3212 53.0687 41.2922 53.0955 41.2676C53.1222 41.243 53.154 41.2232 53.1892 41.2109C53.2246 41.1987 53.2629 41.1935 53.3005 41.1963C53.3379 41.1991 53.3742 41.2095 53.407 41.2266L53.4089 41.2275C54.299 41.6878 55.1833 42.1495 56.0496 42.6367L56.9099 43.1338C57.2271 43.326 57.5153 43.4985 57.7742 43.7061L57.782 43.7119C57.8883 43.7931 57.9727 43.9187 58.0798 44.1113V44.1123C58.2052 44.3512 58.3156 44.5983 58.4119 44.8535C58.5085 45.1101 58.5734 45.2611 58.5847 45.4238V45.5469C58.5679 45.7997 58.4743 46.6635 58.325 47.4883C58.2492 47.9067 58.1617 48.2998 58.0671 48.5928C58.0194 48.7406 57.9749 48.8471 57.9373 48.9141C57.9325 48.9225 57.9264 48.9286 57.9226 48.9346C57.7841 48.9774 57.6211 48.9814 57.3777 48.9775H41.6335C41.4753 48.9798 41.3201 48.944 41.1804 48.875L41.0466 48.7949C40.9786 48.7456 40.9199 48.6859 40.8689 48.6201C40.8656 48.6057 40.8606 48.5869 40.8562 48.5625C40.8412 48.4787 40.8263 48.3609 40.8113 48.2148C40.7815 47.9243 40.7555 47.5492 40.7341 47.167C40.7128 46.7854 40.696 46.402 40.6843 46.0977L40.6648 45.5029V45.4736L40.6804 45.3125C40.6888 45.2682 40.7006 45.2243 40.7156 45.1816L40.7146 45.1807C40.8094 44.9141 40.9097 44.6572 41.0232 44.4092C41.1616 44.1166 41.2663 43.9025 41.4265 43.7471C41.6854 43.5254 41.9829 43.351 42.324 43.1396C43.372 42.5152 44.4553 41.9457 45.5505 41.376C45.6184 41.3432 45.6873 41.3058 45.74 41.2783C45.7903 41.2521 45.833 41.2313 45.8728 41.2139C45.8972 41.2059 45.9223 41.1991 45.948 41.1963ZM49.5222 30.3105C50.1092 30.2979 50.696 30.3559 51.2693 30.4834V30.4844C51.8769 30.6305 52.4429 30.9021 52.8621 31.3125L52.865 31.3145C53.2945 31.7271 53.5787 32.2873 53.7361 32.8916V32.8926C53.8672 33.3934 53.9214 33.9222 53.9304 34.4609C53.9529 35.7707 53.5625 37.0533 52.8152 38.1318L52.6609 38.3447C52.2697 38.8605 51.8052 39.3155 51.2732 39.6621L51.2693 39.665C50.9669 39.8673 50.6343 40.0226 50.2839 40.126L50.283 40.127C49.9419 40.2284 49.58 40.2436 49.2312 40.1719H49.2302C48.6987 40.0603 48.1988 39.7958 47.74 39.4502L47.5457 39.2969C46.525 38.4316 45.806 37.2723 45.488 35.9834L45.4871 35.9824C45.2884 35.1842 45.278 34.3383 45.3943 33.5029L45.3933 33.502C45.4955 32.7995 45.7237 32.1304 46.1414 31.6074L46.1443 31.6045C46.4912 31.1607 46.99 30.8275 47.5457 30.6299L47.7507 30.5615C48.2267 30.415 48.7364 30.3465 49.2566 30.3232L49.5222 30.3105Z" stroke="url(#paint10_linear_501_4856)" stroke-width="0.830396" shape-rendering="crispEdges"/>
</g>
<g id="Vector_2" filter="url(#filter7_ddd_501_4856)">
<path d="M56.4956 47.4623C56.4118 47.5011 56.3157 47.5011 56.2319 47.4623L51.7279 45.3268V47.8118C51.7279 47.9303 51.7933 48.0386 51.8995 48.0897L56.2279 50.2682C56.3157 50.3111 56.4179 50.3111 56.5037 50.2682L60.8321 48.0897C60.9363 48.0366 61.0037 47.9283 61.0017 47.8118V45.3288L56.4956 47.4623Z" fill="#D2EAFF"/>
<path d="M63.6543 42.5352L56.4772 39.666C56.4036 39.6374 56.3219 39.6374 56.2503 39.666L49.0732 42.5352C48.9547 42.5822 48.875 42.6966 48.875 42.8254C48.875 42.9541 48.9527 43.0686 49.0732 43.1156L51.7258 44.1762V44.6401L56.3627 46.837L61.0017 44.6401V44.1721L62.2381 43.6776V51.2266C62.2381 51.3983 62.377 51.5372 62.5467 51.5372C62.7183 51.5372 62.8552 51.3983 62.8552 51.2266V43.4466L62.8532 43.4323L63.6543 43.1115C63.7728 43.0645 63.8505 42.95 63.8505 42.8213C63.8505 42.6966 63.7728 42.5822 63.6543 42.5352Z" fill="#D2EAFF"/>
<path d="M62.5487 51.5393C62.377 51.5393 62.236 51.4003 62.236 51.2266V43.6796L62.8593 43.418V51.2287C62.8593 51.4003 62.7204 51.5393 62.5487 51.5393Z" fill="#D2EAFF"/>
<path d="M62.7744 51.2266C62.7744 51.3541 62.673 51.4559 62.5469 51.4561C62.4223 51.4561 62.3193 51.3538 62.3193 51.2266V43.7314L62.7744 43.541V51.2266ZM56.4678 50.1953C56.405 50.2267 56.3284 50.2274 56.2627 50.1953L51.9355 48.0176L51.9346 48.0166C51.8576 47.9796 51.8086 47.9003 51.8086 47.8115V45.4541L56.1973 47.5352L56.1982 47.5361C56.3034 47.5847 56.4241 47.5847 56.5293 47.5361L56.5303 47.5352L60.9209 45.4561V47.8135C60.9219 47.8766 60.8941 47.9373 60.8477 47.9805L60.7949 48.0176L56.4678 50.1953ZM51.8066 44.1211L51.7559 44.1006L49.1035 43.04H49.1025C49.0133 43.0052 48.9561 42.9207 48.9561 42.8252C48.9561 42.7304 49.0153 42.6453 49.1035 42.6104L56.2803 39.7412C56.3319 39.7205 56.3926 39.7192 56.4473 39.7402V39.7412L63.624 42.6104C63.712 42.6453 63.7695 42.7302 63.7695 42.8213C63.7695 42.917 63.7115 43.0015 63.624 43.0361L62.9404 43.3096V43.2959L62.8281 43.3438L62.2559 43.582L62.208 43.6025L60.9717 44.0967L60.9209 44.1172V44.5879L56.3623 46.7471L51.8066 44.5879V44.1211Z" stroke="url(#paint11_linear_501_4856)" stroke-width="0.162028"/>
</g>
</g>
</g>
</g>
<defs>
<filter id="filter0_dddd_501_4856" x="51.1738" y="6.12254" width="27.3914" height="27.3916" filterUnits="userSpaceOnUse" color-interpolation-filters="sRGB">
<feFlood flood-opacity="0" result="BackgroundImageFix"/>
<feColorMatrix in="SourceAlpha" type="matrix" values="0 0 0 0 0 0 0 0 0 0 0 0 0 0 0 0 0 0 127 0" result="hardAlpha"/>
<feOffset/>
<feGaussianBlur stdDeviation="1.30435"/>
<feComposite in2="hardAlpha" operator="out"/>
<feColorMatrix type="matrix" values="0 0 0 0 0 0 0 0 0 0.435294 0 0 0 0 1 0 0 0 1 0"/>
<feBlend mode="normal" in2="BackgroundImageFix" result="effect1_dropShadow_501_4856"/>
<feColorMatrix in="SourceAlpha" type="matrix" values="0 0 0 0 0 0 0 0 0 0 0 0 0 0 0 0 0 0 127 0" result="hardAlpha"/>
<feOffset/>
<feGaussianBlur stdDeviation="3.26087"/>
<feComposite in2="hardAlpha" operator="out"/>
<feColorMatrix type="matrix" values="0 0 0 0 0 0 0 0 0 0.435294 0 0 0 0 1 0 0 0 0.5 0"/>
<feBlend mode="normal" in2="effect1_dropShadow_501_4856" result="effect2_dropShadow_501_4856"/>
<feColorMatrix in="SourceAlpha" type="matrix" values="0 0 0 0 0 0 0 0 0 0 0 0 0 0 0 0 0 0 127 0" result="hardAlpha"/>
<feOffset/>
<feGaussianBlur stdDeviation="4.8913"/>
<feComposite in2="hardAlpha" operator="out"/>
<feColorMatrix type="matrix" values="0 0 0 0 0 0 0 0 0 0.435294 0 0 0 0 1 0 0 0 0.5 0"/>
<feBlend mode="normal" in2="effect2_dropShadow_501_4856" result="effect3_dropShadow_501_4856"/>
<feColorMatrix in="SourceAlpha" type="matrix" values="0 0 0 0 0 0 0 0 0 0 0 0 0 0 0 0 0 0 127 0" result="hardAlpha"/>
<feOffset/>
<feGaussianBlur stdDeviation="6.52174"/>
<feComposite in2="hardAlpha" operator="out"/>
<feColorMatrix type="matrix" values="0 0 0 0 0 0 0 0 0 0.433333 0 0 0 0 1 0 0 0 0.5 0"/>
<feBlend mode="normal" in2="effect3_dropShadow_501_4856" result="effect4_dropShadow_501_4856"/>
<feBlend mode="normal" in="SourceGraphic" in2="effect4_dropShadow_501_4856" result="shape"/>
</filter>
<filter id="filter1_dddd_501_4856" x="57.3691" y="28.2964" width="27.3914" height="27.3916" filterUnits="userSpaceOnUse" color-interpolation-filters="sRGB">
<feFlood flood-opacity="0" result="BackgroundImageFix"/>
<feColorMatrix in="SourceAlpha" type="matrix" values="0 0 0 0 0 0 0 0 0 0 0 0 0 0 0 0 0 0 127 0" result="hardAlpha"/>
<feOffset/>
<feGaussianBlur stdDeviation="1.30435"/>
<feComposite in2="hardAlpha" operator="out"/>
<feColorMatrix type="matrix" values="0 0 0 0 0 0 0 0 0 0.435294 0 0 0 0 1 0 0 0 1 0"/>
<feBlend mode="normal" in2="BackgroundImageFix" result="effect1_dropShadow_501_4856"/>
<feColorMatrix in="SourceAlpha" type="matrix" values="0 0 0 0 0 0 0 0 0 0 0 0 0 0 0 0 0 0 127 0" result="hardAlpha"/>
<feOffset/>
<feGaussianBlur stdDeviation="3.26087"/>
<feComposite in2="hardAlpha" operator="out"/>
<feColorMatrix type="matrix" values="0 0 0 0 0 0 0 0 0 0.435294 0 0 0 0 1 0 0 0 0.5 0"/>
<feBlend mode="normal" in2="effect1_dropShadow_501_4856" result="effect2_dropShadow_501_4856"/>
<feColorMatrix in="SourceAlpha" type="matrix" values="0 0 0 0 0 0 0 0 0 0 0 0 0 0 0 0 0 0 127 0" result="hardAlpha"/>
<feOffset/>
<feGaussianBlur stdDeviation="4.8913"/>
<feComposite in2="hardAlpha" operator="out"/>
<feColorMatrix type="matrix" values="0 0 0 0 0 0 0 0 0 0.435294 0 0 0 0 1 0 0 0 0.5 0"/>
<feBlend mode="normal" in2="effect2_dropShadow_501_4856" result="effect3_dropShadow_501_4856"/>
<feColorMatrix in="SourceAlpha" type="matrix" values="0 0 0 0 0 0 0 0 0 0 0 0 0 0 0 0 0 0 127 0" result="hardAlpha"/>
<feOffset/>
<feGaussianBlur stdDeviation="6.52174"/>
<feComposite in2="hardAlpha" operator="out"/>
<feColorMatrix type="matrix" values="0 0 0 0 0 0 0 0 0 0.433333 0 0 0 0 1 0 0 0 0.5 0"/>
<feBlend mode="normal" in2="effect3_dropShadow_501_4856" result="effect4_dropShadow_501_4856"/>
<feBlend mode="normal" in="SourceGraphic" in2="effect4_dropShadow_501_4856" result="shape"/>
</filter>
<filter id="filter2_dddd_501_4856" x="11.4563" y="16.1011" width="27.3914" height="27.3916" filterUnits="userSpaceOnUse" color-interpolation-filters="sRGB">
<feFlood flood-opacity="0" result="BackgroundImageFix"/>
<feColorMatrix in="SourceAlpha" type="matrix" values="0 0 0 0 0 0 0 0 0 0 0 0 0 0 0 0 0 0 127 0" result="hardAlpha"/>
<feOffset/>
<feGaussianBlur stdDeviation="1.30435"/>
<feComposite in2="hardAlpha" operator="out"/>
<feColorMatrix type="matrix" values="0 0 0 0 0 0 0 0 0 0.435294 0 0 0 0 1 0 0 0 1 0"/>
<feBlend mode="normal" in2="BackgroundImageFix" result="effect1_dropShadow_501_4856"/>
<feColorMatrix in="SourceAlpha" type="matrix" values="0 0 0 0 0 0 0 0 0 0 0 0 0 0 0 0 0 0 127 0" result="hardAlpha"/>
<feOffset/>
<feGaussianBlur stdDeviation="3.26087"/>
<feComposite in2="hardAlpha" operator="out"/>
<feColorMatrix type="matrix" values="0 0 0 0 0 0 0 0 0 0.435294 0 0 0 0 1 0 0 0 0.5 0"/>
<feBlend mode="normal" in2="effect1_dropShadow_501_4856" result="effect2_dropShadow_501_4856"/>
<feColorMatrix in="SourceAlpha" type="matrix" values="0 0 0 0 0 0 0 0 0 0 0 0 0 0 0 0 0 0 127 0" result="hardAlpha"/>
<feOffset/>
<feGaussianBlur stdDeviation="4.8913"/>
<feComposite in2="hardAlpha" operator="out"/>
<feColorMatrix type="matrix" values="0 0 0 0 0 0 0 0 0 0.435294 0 0 0 0 1 0 0 0 0.5 0"/>
<feBlend mode="normal" in2="effect2_dropShadow_501_4856" result="effect3_dropShadow_501_4856"/>
<feColorMatrix in="SourceAlpha" type="matrix" values="0 0 0 0 0 0 0 0 0 0 0 0 0 0 0 0 0 0 127 0" result="hardAlpha"/>
<feOffset/>
<feGaussianBlur stdDeviation="6.52174"/>
<feComposite in2="hardAlpha" operator="out"/>
<feColorMatrix type="matrix" values="0 0 0 0 0 0 0 0 0 0.433333 0 0 0 0 1 0 0 0 0.5 0"/>
<feBlend mode="normal" in2="effect3_dropShadow_501_4856" result="effect4_dropShadow_501_4856"/>
<feBlend mode="normal" in="SourceGraphic" in2="effect4_dropShadow_501_4856" result="shape"/>
</filter>
<filter id="filter3_dddd_501_4856" x="28.6738" y="1.23191" width="28.0435" height="28.044" filterUnits="userSpaceOnUse" color-interpolation-filters="sRGB">
<feFlood flood-opacity="0" result="BackgroundImageFix"/>
<feColorMatrix in="SourceAlpha" type="matrix" values="0 0 0 0 0 0 0 0 0 0 0 0 0 0 0 0 0 0 127 0" result="hardAlpha"/>
<feOffset/>
<feGaussianBlur stdDeviation="1.30435"/>
<feComposite in2="hardAlpha" operator="out"/>
<feColorMatrix type="matrix" values="0 0 0 0 0 0 0 0 0 0.435294 0 0 0 0 1 0 0 0 1 0"/>
<feBlend mode="normal" in2="BackgroundImageFix" result="effect1_dropShadow_501_4856"/>
<feColorMatrix in="SourceAlpha" type="matrix" values="0 0 0 0 0 0 0 0 0 0 0 0 0 0 0 0 0 0 127 0" result="hardAlpha"/>
<feOffset/>
<feGaussianBlur stdDeviation="3.26087"/>
<feComposite in2="hardAlpha" operator="out"/>
<feColorMatrix type="matrix" values="0 0 0 0 0 0 0 0 0 0.435294 0 0 0 0 1 0 0 0 0.5 0"/>
<feBlend mode="normal" in2="effect1_dropShadow_501_4856" result="effect2_dropShadow_501_4856"/>
<feColorMatrix in="SourceAlpha" type="matrix" values="0 0 0 0 0 0 0 0 0 0 0 0 0 0 0 0 0 0 127 0" result="hardAlpha"/>
<feOffset/>
<feGaussianBlur stdDeviation="4.8913"/>
<feComposite in2="hardAlpha" operator="out"/>
<feColorMatrix type="matrix" values="0 0 0 0 0 0 0 0 0 0.435294 0 0 0 0 1 0 0 0 0.5 0"/>
<feBlend mode="normal" in2="effect2_dropShadow_501_4856" result="effect3_dropShadow_501_4856"/>
<feColorMatrix in="SourceAlpha" type="matrix" values="0 0 0 0 0 0 0 0 0 0 0 0 0 0 0 0 0 0 127 0" result="hardAlpha"/>
<feOffset/>
<feGaussianBlur stdDeviation="6.52174"/>
<feComposite in2="hardAlpha" operator="out"/>
<feColorMatrix type="matrix" values="0 0 0 0 0 0 0 0 0 0.433333 0 0 0 0 1 0 0 0 0.5 0"/>
<feBlend mode="normal" in2="effect3_dropShadow_501_4856" result="effect4_dropShadow_501_4856"/>
<feBlend mode="normal" in="SourceGraphic" in2="effect4_dropShadow_501_4856" result="shape"/>
</filter>
<filter id="filter4_dddd_501_4856" x="24.1084" y="44.6011" width="28.6956" height="28.6963" filterUnits="userSpaceOnUse" color-interpolation-filters="sRGB">
<feFlood flood-opacity="0" result="BackgroundImageFix"/>
<feColorMatrix in="SourceAlpha" type="matrix" values="0 0 0 0 0 0 0 0 0 0 0 0 0 0 0 0 0 0 127 0" result="hardAlpha"/>
<feOffset/>
<feGaussianBlur stdDeviation="1.30435"/>
<feComposite in2="hardAlpha" operator="out"/>
<feColorMatrix type="matrix" values="0 0 0 0 0 0 0 0 0 0.435294 0 0 0 0 1 0 0 0 1 0"/>
<feBlend mode="normal" in2="BackgroundImageFix" result="effect1_dropShadow_501_4856"/>
<feColorMatrix in="SourceAlpha" type="matrix" values="0 0 0 0 0 0 0 0 0 0 0 0 0 0 0 0 0 0 127 0" result="hardAlpha"/>
<feOffset/>
<feGaussianBlur stdDeviation="3.26087"/>
<feComposite in2="hardAlpha" operator="out"/>
<feColorMatrix type="matrix" values="0 0 0 0 0 0 0 0 0 0.435294 0 0 0 0 1 0 0 0 0.5 0"/>
<feBlend mode="normal" in2="effect1_dropShadow_501_4856" result="effect2_dropShadow_501_4856"/>
<feColorMatrix in="SourceAlpha" type="matrix" values="0 0 0 0 0 0 0 0 0 0 0 0 0 0 0 0 0 0 127 0" result="hardAlpha"/>
<feOffset/>
<feGaussianBlur stdDeviation="4.8913"/>
<feComposite in2="hardAlpha" operator="out"/>
<feColorMatrix type="matrix" values="0 0 0 0 0 0 0 0 0 0.435294 0 0 0 0 1 0 0 0 0.5 0"/>
<feBlend mode="normal" in2="effect2_dropShadow_501_4856" result="effect3_dropShadow_501_4856"/>
<feColorMatrix in="SourceAlpha" type="matrix" values="0 0 0 0 0 0 0 0 0 0 0 0 0 0 0 0 0 0 127 0" result="hardAlpha"/>
<feOffset/>
<feGaussianBlur stdDeviation="6.52174"/>
<feComposite in2="hardAlpha" operator="out"/>
<feColorMatrix type="matrix" values="0 0 0 0 0 0 0 0 0 0.433333 0 0 0 0 1 0 0 0 0.5 0"/>
<feBlend mode="normal" in2="effect3_dropShadow_501_4856" result="effect4_dropShadow_501_4856"/>
<feBlend mode="normal" in="SourceGraphic" in2="effect4_dropShadow_501_4856" result="shape"/>
</filter>
<filter id="filter5_dddd_501_4856" x="46.2824" y="47.2104" width="28.0435" height="28.044" filterUnits="userSpaceOnUse" color-interpolation-filters="sRGB">
<feFlood flood-opacity="0" result="BackgroundImageFix"/>
<feColorMatrix in="SourceAlpha" type="matrix" values="0 0 0 0 0 0 0 0 0 0 0 0 0 0 0 0 0 0 127 0" result="hardAlpha"/>
<feOffset/>
<feGaussianBlur stdDeviation="1.30435"/>
<feComposite in2="hardAlpha" operator="out"/>
<feColorMatrix type="matrix" values="0 0 0 0 0 0 0 0 0 0.435294 0 0 0 0 1 0 0 0 1 0"/>
<feBlend mode="normal" in2="BackgroundImageFix" result="effect1_dropShadow_501_4856"/>
<feColorMatrix in="SourceAlpha" type="matrix" values="0 0 0 0 0 0 0 0 0 0 0 0 0 0 0 0 0 0 127 0" result="hardAlpha"/>
<feOffset/>
<feGaussianBlur stdDeviation="3.26087"/>
<feComposite in2="hardAlpha" operator="out"/>
<feColorMatrix type="matrix" values="0 0 0 0 0 0 0 0 0 0.435294 0 0 0 0 1 0 0 0 0.5 0"/>
<feBlend mode="normal" in2="effect1_dropShadow_501_4856" result="effect2_dropShadow_501_4856"/>
<feColorMatrix in="SourceAlpha" type="matrix" values="0 0 0 0 0 0 0 0 0 0 0 0 0 0 0 0 0 0 127 0" result="hardAlpha"/>
<feOffset/>
<feGaussianBlur stdDeviation="4.8913"/>
<feComposite in2="hardAlpha" operator="out"/>
<feColorMatrix type="matrix" values="0 0 0 0 0 0 0 0 0 0.435294 0 0 0 0 1 0 0 0 0.5 0"/>
<feBlend mode="normal" in2="effect2_dropShadow_501_4856" result="effect3_dropShadow_501_4856"/>
<feColorMatrix in="SourceAlpha" type="matrix" values="0 0 0 0 0 0 0 0 0 0 0 0 0 0 0 0 0 0 127 0" result="hardAlpha"/>
<feOffset/>
<feGaussianBlur stdDeviation="6.52174"/>
<feComposite in2="hardAlpha" operator="out"/>
<feColorMatrix type="matrix" values="0 0 0 0 0 0 0 0 0 0.433333 0 0 0 0 1 0 0 0 0.5 0"/>
<feBlend mode="normal" in2="effect3_dropShadow_501_4856" result="effect4_dropShadow_501_4856"/>
<feBlend mode="normal" in="SourceGraphic" in2="effect4_dropShadow_501_4856" result="shape"/>
</filter>
<filter id="filter6_dd_501_4856" x="7.03392" y="0.000282764" width="85.1817" height="85.9317" filterUnits="userSpaceOnUse" color-interpolation-filters="sRGB">
<feFlood flood-opacity="0" result="BackgroundImageFix"/>
<feColorMatrix in="SourceAlpha" type="matrix" values="0 0 0 0 0 0 0 0 0 0 0 0 0 0 0 0 0 0 127 0" result="hardAlpha"/>
<feOffset dy="3.32158"/>
<feGaussianBlur stdDeviation="16.6079"/>
<feComposite in2="hardAlpha" operator="out"/>
<feColorMatrix type="matrix" values="0 0 0 0 0 0 0 0 0 0 0 0 0 0 0 0 0 0 0.35 0"/>
<feBlend mode="normal" in2="BackgroundImageFix" result="effect1_dropShadow_501_4856"/>
<feColorMatrix in="SourceAlpha" type="matrix" values="0 0 0 0 0 0 0 0 0 0 0 0 0 0 0 0 0 0 127 0" result="hardAlpha"/>
<feOffset dy="3.32158"/>
<feGaussianBlur stdDeviation="8.30396"/>
<feComposite in2="hardAlpha" operator="out"/>
<feColorMatrix type="matrix" values="0 0 0 0 0 0 0 0 0 0 0 0 0 0 0 0 0 0 0.35 0"/>
<feBlend mode="normal" in2="effect1_dropShadow_501_4856" result="effect2_dropShadow_501_4856"/>
<feBlend mode="normal" in="SourceGraphic" in2="effect2_dropShadow_501_4856" result="shape"/>
</filter>
<filter id="filter7_ddd_501_4856" x="15.6592" y="6.4287" width="81.4072" height="78.3262" filterUnits="userSpaceOnUse" color-interpolation-filters="sRGB">
<feFlood flood-opacity="0" result="BackgroundImageFix"/>
<feColorMatrix in="SourceAlpha" type="matrix" values="0 0 0 0 0 0 0 0 0 0 0 0 0 0 0 0 0 0 127 0" result="hardAlpha"/>
<feOffset/>
<feGaussianBlur stdDeviation="16.6079"/>
<feComposite in2="hardAlpha" operator="out"/>
<feColorMatrix type="matrix" values="0 0 0 0 0.239216 0 0 0 0 0.505882 0 0 0 0 1 0 0 0 1 0"/>
<feBlend mode="normal" in2="BackgroundImageFix" result="effect1_dropShadow_501_4856"/>
<feColorMatrix in="SourceAlpha" type="matrix" values="0 0 0 0 0 0 0 0 0 0 0 0 0 0 0 0 0 0 127 0" result="hardAlpha"/>
<feOffset/>
<feGaussianBlur stdDeviation="8.30396"/>
<feComposite in2="hardAlpha" operator="out"/>
<feColorMatrix type="matrix" values="0 0 0 0 0.239216 0 0 0 0 0.505882 0 0 0 0 1 0 0 0 1 0"/>
<feBlend mode="normal" in2="effect1_dropShadow_501_4856" result="effect2_dropShadow_501_4856"/>
<feColorMatrix in="SourceAlpha" type="matrix" values="0 0 0 0 0 0 0 0 0 0 0 0 0 0 0 0 0 0 127 0" result="hardAlpha"/>
<feOffset/>
<feGaussianBlur stdDeviation="4.15198"/>
<feComposite in2="hardAlpha" operator="out"/>
<feColorMatrix type="matrix" values="0 0 0 0 0.239216 0 0 0 0 0.50549 0 0 0 0 1 0 0 0 1 0"/>
<feBlend mode="normal" in2="effect2_dropShadow_501_4856" result="effect3_dropShadow_501_4856"/>
<feBlend mode="normal" in="SourceGraphic" in2="effect3_dropShadow_501_4856" result="shape"/>
</filter>
<linearGradient id="paint0_linear_501_4856" x1="87.47" y1="53.1812" x2="51.4998" y2="17.2109" gradientUnits="userSpaceOnUse">
<stop stop-color="#001D7D" stop-opacity="0"/>
<stop offset="1" stop-color="#5A91FF" stop-opacity="0.7"/>
</linearGradient>
<linearGradient id="paint1_linear_501_4856" x1="51.4998" y1="17.2109" x2="87.47" y2="53.1812" gradientUnits="userSpaceOnUse">
<stop stop-color="#D7E1FF"/>
<stop offset="1" stop-color="#D7E5FF" stop-opacity="0"/>
</linearGradient>
<linearGradient id="paint2_linear_501_4856" x1="51.4998" y1="12.6445" x2="93.9262" y2="55.0709" gradientUnits="userSpaceOnUse">
<stop stop-color="#D7E1FF"/>
<stop offset="1" stop-color="#D7E5FF" stop-opacity="0"/>
</linearGradient>
<linearGradient id="paint3_linear_501_4856" x1="64.2173" y1="19.166" x2="65.5216" y2="20.4704" gradientUnits="userSpaceOnUse">
<stop stop-color="#D7E1FF"/>
<stop offset="1" stop-color="#D7E5FF" stop-opacity="0"/>
</linearGradient>
<linearGradient id="paint4_linear_501_4856" x1="70.4126" y1="41.3398" x2="71.7169" y2="42.6442" gradientUnits="userSpaceOnUse">
<stop stop-color="#D7E1FF"/>
<stop offset="1" stop-color="#D7E5FF" stop-opacity="0"/>
</linearGradient>
<linearGradient id="paint5_linear_501_4856" x1="24.4998" y1="29.1445" x2="25.8041" y2="30.4489" gradientUnits="userSpaceOnUse">
<stop stop-color="#D7E1FF"/>
<stop offset="1" stop-color="#D7E5FF" stop-opacity="0"/>
</linearGradient>
<linearGradient id="paint6_linear_501_4856" x1="41.7173" y1="14.2754" x2="43.6738" y2="16.2319" gradientUnits="userSpaceOnUse">
<stop stop-color="#D7E1FF"/>
<stop offset="1" stop-color="#D7E5FF" stop-opacity="0"/>
</linearGradient>
<linearGradient id="paint7_linear_501_4856" x1="37.1519" y1="57.6445" x2="39.7606" y2="60.2532" gradientUnits="userSpaceOnUse">
<stop stop-color="#D7E1FF"/>
<stop offset="1" stop-color="#D7E5FF" stop-opacity="0"/>
</linearGradient>
<linearGradient id="paint8_linear_501_4856" x1="59.3259" y1="60.2539" x2="61.2824" y2="62.2104" gradientUnits="userSpaceOnUse">
<stop stop-color="#D7E1FF"/>
<stop offset="1" stop-color="#D7E5FF" stop-opacity="0"/>
</linearGradient>
<linearGradient id="paint9_linear_501_4856" x1="40.2498" y1="39.6445" x2="58.9999" y2="39.6445" gradientUnits="userSpaceOnUse">
<stop stop-color="#DEEDFF" stop-opacity="0.4"/>
<stop offset="1" stop-color="#DEEAFF" stop-opacity="0"/>
</linearGradient>
<linearGradient id="paint10_linear_501_4856" x1="40.2498" y1="29.8945" x2="59.7348" y2="48.6301" gradientUnits="userSpaceOnUse">
<stop stop-color="#D7E1FF"/>
<stop offset="1" stop-color="#D7E5FF" stop-opacity="0"/>
</linearGradient>
<linearGradient id="paint11_linear_501_4856" x1="48.875" y1="39.6445" x2="60.4611" y2="54.2314" gradientUnits="userSpaceOnUse">
<stop stop-color="#D7E1FF"/>
<stop offset="1" stop-color="#D7E5FF" stop-opacity="0"/>
</linearGradient>
</defs>
</svg>
